<svg xmlns="http://www.w3.org/2000/svg" xmlns:xlink="http://www.w3.org/1999/xlink" id="LogoFin" viewBox="165 89.7 270 282"><defs><style>.cls-1{fill:none;}.cls-2{clip-path:url(#clip-path);}.cls-3{fill:#f90;}.cls-4{fill:#fff;}</style><clipPath id="clip-path" transform="translate(-82.8 -53.8)"><path class="cls-1" d="M383,193.7l20-49.2,114,280H483l-21.6-52.8h-5.6L477,424.5H443l-21.6-52.8H344.6L323,424.5H289l21.6-52.8h-6L283,424.5H249l114-280ZM317.8,340.1h5.6l42.8-104.4-3.2-7.2Zm40,0h50.8L383,277.3Zm42.4-104.4,42.4,104.4h6L403,228.5Z"/></clipPath></defs><g class="cls-2"><g id="Background_Black" data-name="Background Black"><path class="cls-4" d="M419,726q69.39,2.63,129.45-28.94,62.49-20.32,108.14-69.47,49.14-45.66,69.47-108.14Q757.62,459.39,755,390l-12-89.32a335.82,335.82,0,0,0-86.41-148.27l-68-52.54Q510,54.29,419,54q-69.39-2.62-129.45,28.94-62.49,20.32-108.14,69.47-49.14,45.66-69.47,108.14Q80.38,320.61,83,390l12,89.32a335.82,335.82,0,0,0,86.41,148.27l68,52.54Q328,725.71,419,726Z" transform="translate(-82.8 -53.8)"/></g><g id="Layer_2" data-name="Layer 2"><g id="Swirls"><path class="cls-4" d="M497.89,365.63l-.46-1.16a61.1,61.1,0,0,0-5.5,3Q494.9,366.42,497.89,365.63Z" transform="translate(-82.8 -53.8)"/><path class="cls-3" d="M457.79,293.73c-2.67-4.17-5.58-8.35-8.21-12.6a58.76,58.76,0,0,1-3.26-8.77q0,1.65.09,3.27a82.91,82.91,0,0,0,5.83,12c4.26,7.39,9.41,14.64,14,21.85-.55-1.05-1.11-2.11-1.67-3.21A73.61,73.61,0,0,0,457.79,293.73Z" transform="translate(-82.8 -53.8)"/><path class="cls-3" d="M448.13,238l-1.39-3.56a68.26,68.26,0,0,0-.42,37.93C446,261.06,445.66,249.19,448.13,238Z" transform="translate(-82.8 -53.8)"/><path class="cls-3" d="M372,160c1.05.3,2.11.57,3.17.85a59.23,59.23,0,0,1-8.85-4.39A12.25,12.25,0,0,0,372,160Z" transform="translate(-82.8 -53.8)"/><path class="cls-3" d="M353,155a5.89,5.89,0,0,0-1.86-.18,6.94,6.94,0,0,1,.86.18,14.69,14.69,0,0,1,3.4,1.72l.18-.43A10.93,10.93,0,0,0,353,155Z" transform="translate(-82.8 -53.8)"/><path class="cls-3" d="M355.58,156.29l-.18.43a50.29,50.29,0,0,1,4.21,3.24A24.45,24.45,0,0,0,355.58,156.29Z" transform="translate(-82.8 -53.8)"/><path class="cls-3" d="M389.31,168.56l-.89,2.19c10.44,2.25,20.78,4.4,30.87,7.2l-1.45-3.53C408.51,172,399,170.25,389.31,168.56Z" transform="translate(-82.8 -53.8)"/><path class="cls-3" d="M389.31,168.56l-11.88-2.06.91,2c3.37.78,6.73,1.51,10.08,2.24Z" transform="translate(-82.8 -53.8)"/><path class="cls-3" d="M377.43,166.5c-2.81-.49-5.62-1-8.43-1.5-3.73-.53-6.61-2.77-9.39-5,2.29,2.42,4.61,5,8.39,6q5.17,1.33,10.34,2.51Z" transform="translate(-82.8 -53.8)"/><path class="cls-3" d="M366.32,156.46c-2.71-2.75-4.82-6.38-7.13-8.83l-1.1,2.63A51,51,0,0,0,366.32,156.46Z" transform="translate(-82.8 -53.8)"/><path class="cls-3" d="M353,177a11.45,11.45,0,0,1-4.6-3.45l-1,2.37C349.26,176.39,351.17,176.7,353,177Z" transform="translate(-82.8 -53.8)"/><path class="cls-3" d="M737.63,287.44c.5-.58,1-1.18,1.45-1.81C738.59,286.26,738.11,286.86,737.63,287.44Z" transform="translate(-82.8 -53.8)"/><path class="cls-3" d="M471.34,318.16c-1.55-2.9-3.29-5.8-5.13-8.71A98,98,0,0,0,471.34,318.16Z" transform="translate(-82.8 -53.8)"/><path class="cls-3" d="M375.17,160.85a96.93,96.93,0,0,0,15.44,4.54l.35-.86C385.68,163.41,380.41,162.23,375.17,160.85Z" transform="translate(-82.8 -53.8)"/><path class="cls-3" d="M391,164.53l-.35.86c8.4,1.82,17.05,3,25.42,4.64l-.07-.18C407.7,167.92,399.33,166.31,391,164.53Z" transform="translate(-82.8 -53.8)"/><path class="cls-3" d="M471.19,321.89c-4.63-11.22-10.95-21.34-17.6-31.39-3.33-5-6.66-10.22-8.57-18.36a49.31,49.31,0,0,0-3-12.3c1.5,6.48,3.06,13,3.1,19.09,2.48,4.38,5.32,8.68,8.17,12.87,5.7,8.4,11.24,16.77,13.55,25.34a52.79,52.79,0,0,0,14.61,18.26l1.55,1.27a14.61,14.61,0,0,0-1.09-1.23C478.43,330.94,474.79,326.44,471.19,321.89Z" transform="translate(-82.8 -53.8)"/><path class="cls-3" d="M445,225a3.24,3.24,0,0,1,.46-.37,9.78,9.78,0,0,0-2,1.25l.3.76C444.11,226.09,444.53,225.54,445,225Z" transform="translate(-82.8 -53.8)"/><path class="cls-3" d="M443.71,226.64l-.3-.76A17.49,17.49,0,0,0,438,234c-2.72,8.85,1,17.24,4,25.84C439.31,248,436.74,236.24,443.71,226.64Z" transform="translate(-82.8 -53.8)"/><path class="cls-3" d="M492.39,351.52a38.81,38.81,0,0,1-7.46-1.08c1-2,2-3,2.34-5.36,2.13-2.88-.78-5.54-4.25-8.41,5.68,7.3-5,12.19-4.09,19.77q7.11-1.62,14.24-2.9Z" transform="translate(-82.8 -53.8)"/><path class="cls-3" d="M484.5,331.28a94.93,94.93,0,0,1-8.7-7.59,37.27,37.27,0,0,1-4.46-5.53c.76,1.43,1.48,2.86,2.14,4.3a99.63,99.63,0,0,0,11.48,10Z" transform="translate(-82.8 -53.8)"/><path class="cls-3" d="M472.93,367.44a198.71,198.71,0,0,1,23-6.94l-1.79-4.6c-7.18,2.12-14.24,4.77-21.17,7.54Z" transform="translate(-82.8 -53.8)"/><path class="cls-3" d="M477.7,313.85a135.45,135.45,0,0,1-21.17-26.94,111.13,111.13,0,0,1-8.46-16.54c-1.94-9.7-4.55-21.29-4.55-21.29.48,11.92.48,23.92,3.25,35a112.54,112.54,0,0,0,5.47,12,113.82,113.82,0,0,0,24.23,31.21,109.47,109.47,0,0,0,9.42,7.57Z" transform="translate(-82.8 -53.8)"/><path class="cls-3" d="M311,263.42c19.1-10,38-22.73,48.54-39.41-14.8,13.33-30.55,24.57-46.86,35.37Z" transform="translate(-82.8 -53.8)"/><path class="cls-3" d="M448.25,238.29l-5-12.71c-3.65,15.14,1.86,30.27,4.48,45.26a41.11,41.11,0,0,0,5.16,12.6c-1.5-4.5-3.75-9.5-4.43-16.87C448.14,257.58,447,247.86,448.25,238.29Z" transform="translate(-82.8 -53.8)"/><path class="cls-3" d="M388.24,171.19c-3-.37-6-.67-9.08-.88l5,10.94Z" transform="translate(-82.8 -53.8)"/><path class="cls-3" d="M388.24,171.19l-4.11,10.06.36.78-.36-.78-.12.3.12-.3-5-10.94c-3-.2-6.08-.31-9.16-.31,1,2,2,4,2,6-1,4-5,8-5,10a51.77,51.77,0,0,1-7.47,38A245.13,245.13,0,0,0,387,195c7.46-9.76,20.85-11.93,35.07-10.31l-3-7.34A258.38,258.38,0,0,0,388.24,171.19Z" transform="translate(-82.8 -53.8)"/><path class="cls-3" d="M428,207c-7,0-15-2-21.72,1.23-4.24,2-7.2,3.51-7.2,3.51C380,228,360,244,343,263c24,2,34-23,52-35,8-4,17,4,21,11,3,5-1,10-6,10-10,0-21-4-29,5-5,7-18,15-11,22,6,5,17-2,26-1,16,3,21,22,17,36,3-10,5-22-1-32-7-13-23-14-36-12,10-16,29-19,45-11,2,1,3-4,6-3C422,238,407,217,428,207Z" transform="translate(-82.8 -53.8)"/><path class="cls-4" d="M379,265h2c5.44-12.91,17.34-10.59,27.55-10.59C397.46,251.8,386.48,253.15,379,265Z" transform="translate(-82.8 -53.8)"/><path class="cls-4" d="M287.93,328.44c.24-3.92.6-8,1.09-12.24l-3.73,8.94A28.69,28.69,0,0,0,287.93,328.44Z" transform="translate(-82.8 -53.8)"/><path class="cls-4" d="M438.94,214.41l-4.17-10.7c-31.47-7-59.52,12.84-82.77,42.29-11.49,15.59-29.7,21.08-46.37,30.28l-9.29,22.34c.27-.22.54-.45.83-.65C329,274,357,246,388,219c11-10,27-16,42-10-5,4-16,4-16,11,1,11,14,25,7,31-3.2,2.88-7.64,3.4-12.45,3.41C415.24,256,422,259,428,262c1,1,3-3,3-5-2-12-12-25-8-35C425.61,214.16,431.79,213.15,438.94,214.41Z" transform="translate(-82.8 -53.8)"/><path class="cls-3" d="M272.07,356.92A105.1,105.1,0,0,1,294.87,372a91,91,0,0,0-22.69-15.37Z" transform="translate(-82.8 -53.8)"/><path class="cls-3" d="M294.87,372a74.37,74.37,0,0,1,7.77,8.49l1.07.27A98.58,98.58,0,0,0,294.87,372Z" transform="translate(-82.8 -53.8)"/><path class="cls-3" d="M384.93,353.44a35.54,35.54,0,0,0,.62-24.13C386,323,387,313,380,312a37.55,37.55,0,0,0-39.07,17.44c1,5,6.5,7.5,11.25,10.37s8.75,6.13,6.75,12.63c-5,12-22,17-36,14-17-2-29-16-38-30,2,8,12,13,11,20-1,4-7.78-3.13-14.83-7.92,3.6,4.05,8.41,8.92,14,14.55a56.39,56.39,0,0,0,12.24,6.87,64.67,64.67,0,0,0,27.63,4.5c17-1,33-12,36.54-29.42C364.15,333.21,358,329.33,358,329.33c-1.25-4.8,8.37-8.19,12.09-8.38,5.57-.27,8.2,2,9.8,7.49a27,27,0,0,1,5.14,15.27c.23,15.23-12.89,29.48-27.14,34.73a91.93,91.93,0,0,1-36.61,5.1,95.1,95.1,0,0,1-17.61-2.77c.21.23.42.44.62.68a186.64,186.64,0,0,0,18.6,4C347.93,388.44,373.93,377.44,384.93,353.44Z" transform="translate(-82.8 -53.8)"/><path class="cls-4" d="M312.69,258.5l.41-.14,0-.14Z" transform="translate(-82.8 -53.8)"/><path class="cls-4" d="M313.1,258.36c10.35-3.64,20.62-7.58,28.9-14.36a99.44,99.44,0,0,0,14-14.92,437.12,437.12,0,0,1-42.87,29.14Z" transform="translate(-82.8 -53.8)"/><path class="cls-4" d="M483,327.48c-1.44-1.39-2.86-2.81-4.24-4.26a60.75,60.75,0,0,1-10.44-14.17c-2.8-7.87-7.78-15.45-12.82-23.06-2.52-3.81-5-7.69-7.25-11.69-1.19-16.27-12.75-34.92-5-48.73l-3.42-8.78c-.63-.28-1.25-.54-1.87-.79,0,3-2,8-6,7,4,21,8,42,14.16,61.94,3.14,4.53,6.51,8.94,9.77,13.37,6.54,8.86,12.64,17.89,16,27.77a89.87,89.87,0,0,0,14.49,10.19l.08,0Z" transform="translate(-82.8 -53.8)"/><path class="cls-4" d="M428.33,187.2c-13.54-.65-27.17,3.33-39.33,8.8-14.13,6.36-22.77,20.21-33,33.08,12-9.12,23.82-18.84,36-29.08,10.09-8.75,24.71-7.08,39.64-4.3Z" transform="translate(-82.8 -53.8)"/><path class="cls-3" d="M468.93,330.43c-1.33-10.66-6.78-21-13-31.17-3.09-5.08-6.35-10.15-9.33-15.29-4.57-20.64-16.25-44.21-5.17-63.07l-1.6-4.1c-4.65.56-8.38,5.21-9.87,8.2-7,16,11,30,10.27,46.56.85,6.07,1.39,11.8,2.49,15.75a30.63,30.63,0,0,1,1.17,12.13c-5-3-11-5-11.76-12.84-.35,6,.32,10.92,2,14.82,5.86,10.74,13.29,20.92,19.39,31.69a105.32,105.32,0,0,1,7.1,14.81c-3.18,7.26-3.87,10.21,1.72,7.23,9.43-8.36,9.74-12.79,8.75-16.76C469.93,335.44,469.93,332.44,468.93,330.43Z" transform="translate(-82.8 -53.8)"/><path class="cls-3" d="M346,243c8.77-6.07,15.72-13.52,22.06-21.49C361.21,229.11,354.27,236.91,346,243Z" transform="translate(-82.8 -53.8)"/><path class="cls-3" d="M431.45,195.21c-15.78-2.48-31.89-3.56-44,6.4-7.21,5.18-10.5,8.11-10.5,8.11-2.9,4-5.81,7.95-8.86,11.79C377,211.64,385.7,202.08,397,197s23.3-2.56,35.59,1.12Z" transform="translate(-82.8 -53.8)"/><path class="cls-4" d="M487.35,338.59l-7.24-2.75A211.94,211.94,0,0,1,455,324.89a93.18,93.18,0,0,1-11.11-7.45,79.71,79.71,0,0,0,21.52,24c4.26,3.13,4.46,7.19.45,12.36,0,3.6-5,9.6-2,8.6,10.34-1.33,20.45-3.55,30.52-5.63Z" transform="translate(-82.8 -53.8)"/><path class="cls-3" d="M400.24,374.54c-.64.59-1.33,1.19-2.06,1.79l2.66.06c.87-.66,1.69-1.31,2.42-1.93Z" transform="translate(-82.8 -53.8)"/><path class="cls-3" d="M413.22,321C411,305,414,273,389,279c-30,7-53,23-83,32-1,0-5,1-5,4.46a28.42,28.42,0,0,0,1,16.73c3.88,11,13.38,20.75,24.88,24.25,1,1,3-3,2-5-4-5.5-8.25-11.75-10.13-18s-1.37-12.5,8.57-16.33C350,311,370,292,394,297c12,2,5,19,9.43,30.06a49.22,49.22,0,0,1,1.91,14.65,52.61,52.61,0,0,1-2.41,14.73,54.82,54.82,0,0,0,2.37-27.38c-.81-4.56-2.13-9-1.83-14.34C405,306,404,292,393,292c-20-1-37,14-57,14,18-4,33-16,50-23,13-5,25,6,23.84,19.12-.26,6.6-.78,12.85.87,17.43,5.52,13.4,4.53,27.48-.53,40.51a37,37,0,0,1-9.94,14.48l3-.08a21.35,21.35,0,0,0,4.33-4.59c6.91-11.32,11-23.71,7.63-38A84.57,84.57,0,0,0,413.22,321Z" transform="translate(-82.8 -53.8)"/><path class="cls-4" d="M495.24,358.85c-16,5.23-30.66,14.43-45.31,25.59-1,0-4,1-5-1-2-14,8-24,14-35.15-1.51-4.21-3.13-8.5-4.92-12.75a156,156,0,0,0-9.15-18.62,91,91,0,0,0-11.83-16.2,16.62,16.62,0,0,1-2-8.82c-.34,2.7-2.15,7-3.09,6.1-8-11-6-29-19-38,15,13,11,33,13,49.72,2,4.54,3.83,9.16,5.59,13.83,3.52,9.33,6.63,18.89,10.3,27.89a27,27,0,0,1,.19,14.24c-3.19,11.76-5.19,30.76-.19,29.76,20.69-5.36,36.1-26.57,57.47-36.2Z" transform="translate(-82.8 -53.8)"/><path class="cls-4" d="M431.14,291.38s0,.19-.05.52C431.11,291.71,431.13,291.54,431.14,291.38Z" transform="translate(-82.8 -53.8)"/><path class="cls-4" d="M281.76,344.25c-.77-1.74-1.51-3.52-2.2-5.33l-1.51,3.62A35.43,35.43,0,0,0,281.76,344.25Z" transform="translate(-82.8 -53.8)"/><path class="cls-4" d="M370,221c-15.54,18.65-36.11,29.18-57.35,38.43l-1.53,3.66C333.78,252.87,355.79,242.66,370,221Z" transform="translate(-82.8 -53.8)"/><path class="cls-4" d="M348.52,377.16A86.1,86.1,0,0,0,362.87,371c6.06-7.51,18.06-19.51,10.06-29.51-1,29-35,40-59,32a110.54,110.54,0,0,1-15.83-5.86c-6.24-7.17-14.9-12.29-23.14-17.6l-1.6,3.84q18.69,10.71,36.75,23.35a88.71,88.71,0,0,0,19.08,2.21A80.68,80.68,0,0,0,348.52,377.16Z" transform="translate(-82.8 -53.8)"/><path class="cls-4" d="M494.28,356.38a224.82,224.82,0,0,0-31.35,10.06c-1,0-3-1-2.86-2.64,2.42-4.85,3.84-8.13,3.84-8.13-6-1.23-11,2.77-14,6.77-4,7-10,24-4,22,15.84-6.89,30.73-18,47.28-24.64.68-.32,1.37-.6,2.06-.89Z" transform="translate(-82.8 -53.8)"/><path class="cls-4" d="M495.31,359l0-.1c-.69.29-1.38.57-2.06.89C493.9,359.52,494.61,359.27,495.31,359Z" transform="translate(-82.8 -53.8)"/><path class="cls-4" d="M495.31,359c-.7.26-1.41.51-2.1.79-21,9.75-36.11,30.43-56.28,41.64-4,2-12-10-9.87-19.28.18-4.5-2.27-6.85-9-6l0,.06c6.7.06,7,9.33,7.2,17.25a25.56,25.56,0,0,0,4.45,14.23c2.71,3.75,5.37,6.12,9.21.75a153.87,153.87,0,0,1,12.68-15.31c13.33-14.1,28.56-24.52,45-30.79Z" transform="translate(-82.8 -53.8)"/><path class="cls-4" d="M417.35,376.24l.72,0,0-.06Z" transform="translate(-82.8 -53.8)"/><path class="cls-3" d="M400.63,321.82c.08.14.14.29.22.44a24.61,24.61,0,0,1-.4-3.26C400.49,320,400.54,320.9,400.63,321.82Z" transform="translate(-82.8 -53.8)"/><path class="cls-3" d="M333.11,394.89c-6,1-12.09,1.71-18.22,2.21-2-.66-5-.66-7-1.66a117,117,0,0,1-12-9.2c-3.86-3.28-7.6-6.61-11.47-9.68a69.71,69.71,0,0,0-12.24-8c-1.35-.66-2.75-1.26-4.22-1.81l-6.68,16c15,.94,30.38,4.17,41.91,15,6,5.16,10.18,7,13.74,6.43,7-1,14.08-1.67,21.17-2.51A48.92,48.92,0,0,1,342.7,393C339.55,393.7,336.35,394.34,333.11,394.89Z" transform="translate(-82.8 -53.8)"/><path class="cls-3" d="M405.91,337.37a54.58,54.58,0,0,0-5.06-15.11c.48,2.61,1.28,5.07,1.85,7.59a41.29,41.29,0,0,1,1.23,12.59c-1,2-3,3-5,1-4,14.49-11.22,25.08-20.48,32.86,4.07-.22,8.23-.21,12.44-.14A64.14,64.14,0,0,0,398.63,365,59.7,59.7,0,0,0,405.91,337.37Z" transform="translate(-82.8 -53.8)"/><path class="cls-3" d="M400.45,319c0-.22,0-.44,0-.65C400.44,318.56,400.44,318.78,400.45,319Z" transform="translate(-82.8 -53.8)"/><path class="cls-3" d="M400.23,303.9c-2.58-6.26-5.54-8.19-5.54-8.19,3.77,3,5.48,8.89,5.77,16A62.73,62.73,0,0,0,400.23,303.9Z" transform="translate(-82.8 -53.8)"/><path class="cls-3" d="M405.93,336.44c0,.31,0,.62,0,.93a.64.64,0,0,1,0,.07Z" transform="translate(-82.8 -53.8)"/><path class="cls-3" d="M400.46,311.72c0,2.22-.08,4.45,0,6.63,0-.44,0-.88,0-1.33C400.52,315.2,400.53,313.42,400.46,311.72Z" transform="translate(-82.8 -53.8)"/><path class="cls-3" d="M265.32,373.12l.94-2.26A1.67,1.67,0,0,0,265.32,373.12Z" transform="translate(-82.8 -53.8)"/><path class="cls-3" d="M335.6,393.8a180.06,180.06,0,0,1-18.29-.2c-8.38.84-13.38-4.16-17.38-8.16a95.53,95.53,0,0,0-30-23.4l-.86,2.09a85.34,85.34,0,0,1,14.86,10.31c-3-2-7-4-11.48-3.79-1.49-.12-4.56-.53-6.19.21l-.94,2.26a6,6,0,0,0,.61,1.32c9,13,28,16,34,31,2,5,11,4,16.56,6.13,4.74-1.86,9.58-3.38,14.45-4.75,1.95-.55,3.9-1.06,5.86-1.58a54.05,54.05,0,0,1,5.61-11.84C340.15,393.57,337.88,393.72,335.6,393.8Z" transform="translate(-82.8 -53.8)"/><path class="cls-3" d="M404.08,360.53A54.13,54.13,0,0,0,407.74,343a49.15,49.15,0,0,0-2.36-17.25C402,315,406,302,397,293c6,8,5,18,4.68,27.31a42.86,42.86,0,0,1,3.87,13.46,46.43,46.43,0,0,1-.62,14.67,60.46,60.46,0,0,1-5.15,14,62.73,62.73,0,0,1-8.07,11.94c-.76.58-1.51,1.17-2.26,1.77l3,.05a44.1,44.1,0,0,1,4.47-2.75A54,54,0,0,0,404.08,360.53Z" transform="translate(-82.8 -53.8)"/><path class="cls-4" d="M403,337.44a47,47,0,0,0-4.31-17.25C400,312,403,296,391,297c-23,2-43,13-65,20.13-7.35,2.77-9.82,7.81-10.07,14.31-1,12,12,22,24.24,25.4a6.81,6.81,0,0,1,4.68,6c8.08-.41,18.08-7.41,15.08-15.41-2.5-5.5-10.25-9-15.75-12.88s-8.75-8.12,3.63-14.25C362,315,380,295,394,308.2c2.24,5.11-2,16.24,1,21.24,5,8,6,18,6,26A51.26,51.26,0,0,0,403,337.44Z" transform="translate(-82.8 -53.8)"/><path class="cls-4" d="M279.23,397.61c-7.89-7.17-13.59-13-13.59-13a38.11,38.11,0,0,0-4.71-1L249.57,411c11.26,6.21,23.61,11.47,36.11,16.72l26.05-.05C303.15,415.48,290,407,279.23,397.61Z" transform="translate(-82.8 -53.8)"/><path class="cls-4" d="M250.49,408.75c18.9,4.36,37.12,9.81,54.05,18.89l8.63,0c-15.15-15.57-35.74-26.19-57.28-31.85Z" transform="translate(-82.8 -53.8)"/><path class="cls-3" d="M410.18,316.27C410,304,413,285,399,282c-25-4-43,19-66,25,21-5,40-21,63-17,12,3,10,18,10.56,28.2a50.41,50.41,0,0,1,4.37,20.24A56.8,56.8,0,0,1,408.18,356a61.28,61.28,0,0,1-7.57,15.48q-2,1.57-4,3.18l3.67-.1a39.64,39.64,0,0,0,10.73-16.23,57.43,57.43,0,0,0,3.24-28.14A54,54,0,0,0,410.18,316.27Z" transform="translate(-82.8 -53.8)"/><path class="cls-3" d="M396.65,374.64l-2,1.6,3.62.09c.7-.6,1.39-1.2,2-1.79Z" transform="translate(-82.8 -53.8)"/><path class="cls-3" d="M496.1,361c-18.23,8.32-35.32,21.2-54.41,29-2.93,1.19-.26-12.82,1.83-19.68,2.09-4.46,7.59-17.3,5.19-20.94-7.59-10.69-13.78-21.94-22.78-30.94,3,15.75,3.19,32.06-1.55,47.25-.95,2.79-2.85,5.54-6.5,8.39l1.77-.05-1.77.05c-.9.71-1.94,1.42-3.08,2.15.87-.05,1.72-.11,2.58-.18a79.32,79.32,0,0,1,9.22-4.44c1.17-6.21,1.87-12.63,2.73-18.93a116.61,116.61,0,0,1,3.6-18.24c4.5,4.5,8.5,9.25,12.51,13.88,2,2.32,2.63,5.47,2.09,9.45-3.6,10.67-14.84,32.6-5.6,37.67,2.24.36,27-19.85,55-32.2Z" transform="translate(-82.8 -53.8)"/><path class="cls-3" d="M316.7,424.65c-4.77-2.21-8.77-6.21-13.77-7.21a57.71,57.71,0,0,1,8.7,10.18l13.25,0A26.61,26.61,0,0,1,316.7,424.65Z" transform="translate(-82.8 -53.8)"/><path class="cls-3" d="M408.52,324.18c-1.2-4.09-2.79-8.13-2.12-13.55C408,303,408,294,401,289c-14-8-27,6-39.85,9.36-7.83,2.78-12.63,4.41-12.63,4.41C365,300,381,287,397,294c7,4,6,14,6,21.25-.11,4.82,1.32,8.81,2.28,12.88a49.89,49.89,0,0,1-1,25.28,60.39,60.39,0,0,1-7.37,16c-1.71,1.71-3.46,3.5-5.26,5.33l4.2-.11c2.78-2.85,5.47-5.63,8.06-8.22a69.16,69.16,0,0,0,5.47-16.61A55,55,0,0,0,408.52,324.18Z" transform="translate(-82.8 -53.8)"/><path class="cls-3" d="M325.93,427.44c0-.23,0-.46,0-.69l-.34.85h.29Z" transform="translate(-82.8 -53.8)"/><path class="cls-3" d="M326,426.75a69.67,69.67,0,0,1,1.44-12.85c1.49-.82,3-1.58,4.57-2.32l3.64-9.19c-4.19.65-8.4,1.22-12.59,1.76-5.56.72-11.09,1.4-21.58-5.27-9.5-7.44-31.5-25.44-31.5-12.44,0,15,25,24,40.44,36.12a62.29,62.29,0,0,0,7.08,5.05h8.16Z" transform="translate(-82.8 -53.8)"/><path class="cls-3" d="M335.6,402.39,332,411.58c1.1-.53,2.22-1,3.34-1.53A80.2,80.2,0,0,1,338,402Z" transform="translate(-82.8 -53.8)"/><path class="cls-3" d="M391.67,374.77l-1.37,1.38,4,.08c.52-.52,1-1.05,1.54-1.57Z" transform="translate(-82.8 -53.8)"/><path class="cls-3" d="M324.88,429.45l.73-1.85h-8.16C321,429.72,323.55,430.35,324.88,429.45Z" transform="translate(-82.8 -53.8)"/><path class="cls-3" d="M325.9,427.6h-.29l-.73,1.85A2.53,2.53,0,0,0,325.9,427.6Z" transform="translate(-82.8 -53.8)"/><path class="cls-4" d="M404.49,366a71.18,71.18,0,0,0,4.44-8.6A95.7,95.7,0,0,1,404.49,366Z" transform="translate(-82.8 -53.8)"/><path class="cls-4" d="M400.89,371.79c1.28-1.87,2.46-3.79,3.6-5.75-.92,1.53-1.87,3-2.9,4.47a27.2,27.2,0,0,1-3.78,4.09h.58A20.29,20.29,0,0,0,400.89,371.79Z" transform="translate(-82.8 -53.8)"/><path class="cls-4" d="M330.41,415.49l.94-2.38A10.18,10.18,0,0,0,330.41,415.49Z" transform="translate(-82.8 -53.8)"/><path class="cls-4" d="M331.35,413.11l-.94,2.38a16,16,0,0,0-.48,2.95c-.22,2.8-.29,5.89-.22,9.15h2a153.71,153.71,0,0,1,3.75-17.94A7.77,7.77,0,0,0,331.35,413.11Z" transform="translate(-82.8 -53.8)"/><path class="cls-4" d="M397.81,374.6c-.6.55-1.26,1.11-1.94,1.67l.59,0c.7-.58,1.36-1.15,1.93-1.7Z" transform="translate(-82.8 -53.8)"/><path class="cls-3" d="M319.62,242.68c6.11-3.78,12.15-8.33,17.55-12.17,5.39-5.33,5.72-7.11,5.72-7.11-5.87,5.32-13.9,12-22.05,16.36Z" transform="translate(-82.8 -53.8)"/><path class="cls-3" d="M319.6,242.73A57.89,57.89,0,0,0,335,228c-3.31.28-6.54.7-9.67,1Z" transform="translate(-82.8 -53.8)"/><path class="cls-3" d="M293.74,304.33c-.19.6-.36,1.21-.54,1.81l.81-1.95Z" transform="translate(-82.8 -53.8)"/><path class="cls-3" d="M288.66,332.83c.67-4.17,2.74-7.81,3.71-12.08s2.11-8.55,3.45-12.79C312,298,329,289,343,276c-15.92,9.95-31.83,19.89-49,28.19l-.81,1.95c-1,3.53-1.91,7.11-2.59,10.7-.79,4.21-2.15,6.36-2.48,10.53-.78-1.3-1.49-2.59-2.15-3.88l-1.3,3.13A30.17,30.17,0,0,0,288.66,332.83Z" transform="translate(-82.8 -53.8)"/><path class="cls-3" d="M288.72,351.9c-2.43-5.27-5.22-10.85-7.72-16.44l-3.67,8.82C280.78,347.37,284.34,350.31,288.72,351.9Z" transform="translate(-82.8 -53.8)"/><path class="cls-3" d="M379.93,341.44c-4,19-19,32-38,35A81.92,81.92,0,0,1,313,374.22a74.88,74.88,0,0,1-13.65-5c-7.23-8-16-13.71-24-20.05l-.12.29c6.14,4.62,11.94,9.7,17.74,15a129,129,0,0,0-19.05-11.87l-.65,1.55a52,52,0,0,1,18.1,13.42c9.26,8.7,15.22,10.76,21.08,11.94a128.66,128.66,0,0,0,17.52,2C352.93,383.44,379.93,367.44,379.93,341.44Z" transform="translate(-82.8 -53.8)"/><path class="cls-3" d="M273.14,354.34l-.26.61a130.38,130.38,0,0,1,21.84,16c1,1,2,1.9,2.93,2.71A119.56,119.56,0,0,0,273.14,354.34Z" transform="translate(-82.8 -53.8)"/><path class="cls-3" d="M336.93,383.44c22-3,47-17,46-41-1-6-3-13-8.05-17.16-1.74-2.28-12.89.11-13.95,3.16,2,4,5,7.75,7,11.62s3,7.88,1,12.38c-6,14-21,20-35,22a49.87,49.87,0,0,1-19.75-1.67,39,39,0,0,1-15.25-8.71,41.39,41.39,0,0,1-10-14.51,54.29,54.29,0,0,1-4-19.11,19.62,19.62,0,0,0,9,9c1-6.5.75-13.75,1.62-20.63s4.18-12.39,14.79-14C340,299,358,271,376,249c-22,19-43,39-69.7,51.37-6.3,3.06-11.27,6.9-12.9,13-1.47,6.29-1.18,14.38-1.35,20.71a20.12,20.12,0,0,1-7.53-7.12l-3,7.34,1.77,4.33a134.64,134.64,0,0,1,4.69,12.78c-3.72-2.23-7.16-4.74-10.58-7.21l-2.07,5c5.56,4,11.11,7.74,15.19,12.77,8,7.64,13.57,10.23,19.33,12.1,17.13,5.38,36.13,4.38,52.13-5.62,10-7,14-17,15.4-29a35.89,35.89,0,0,0,.66-5c7.94,18-6.06,37-23.06,44-14.5,6-29,5.75-43.25,2.5a30.22,30.22,0,0,1-14-7.29c1.58,1.6,3.14,3.23,4.65,4.91a107.5,107.5,0,0,0,17,4.18A74.55,74.55,0,0,0,336.93,383.44Z" transform="translate(-82.8 -53.8)"/><path class="cls-4" d="M350,198a67.26,67.26,0,0,0-10.7-2.59l-8.66,20.8A30.43,30.43,0,0,0,342,219c1,0,2,3,2,4a103.13,103.13,0,0,1-26.38,24.48l-1.78,4.3A124.26,124.26,0,0,0,352,220C357,213,359,201,350,198Z" transform="translate(-82.8 -53.8)"/><path class="cls-4" d="M374.07,159.11c-2.35-.42-4.7-.79-7.07-1.11-3,0-2,3-4,4l14,3.61Z" transform="translate(-82.8 -53.8)"/><path class="cls-4" d="M374.07,159.11l2.95,6.5,12.22,3.14,2.35-5.75C385.8,161.51,380,160.17,374.07,159.11Z" transform="translate(-82.8 -53.8)"/><path class="cls-4" d="M391.59,163l-2.35,5.75q14.67,3.76,29.32,7.42l-2.67-6.49C407.83,167.46,399.75,165.09,391.59,163Z" transform="translate(-82.8 -53.8)"/><path class="cls-3" d="M313.68,248.93q-3.18,1.33-6.38,2.6A16.53,16.53,0,0,0,312,250Z" transform="translate(-82.8 -53.8)"/><path class="cls-3" d="M288.93,364.76c8.43,7.66,14.87,12.93,20,14.68a39,39,0,0,1-9.67-6.27,96,96,0,0,0-25.61-20.06l-.18.43A71.39,71.39,0,0,1,288.93,364.76Z" transform="translate(-82.8 -53.8)"/><path class="cls-3" d="M313.68,248.93c1.37-.58,2.73-1.18,4.09-1.79l.43-1C316.61,247.08,315.09,248,313.68,248.93Z" transform="translate(-82.8 -53.8)"/><path class="cls-3" d="M342.89,186.77l-2.44,5.87c2.78,3.21,5.72,6.34,8.55,9.36,14.24,16-12.71,32.84-30.8,44.09l-.43,1C339.31,237.42,358.3,223.7,357,199,356.36,192,350,189,342.89,186.77Z" transform="translate(-82.8 -53.8)"/><path class="cls-4" d="M348.53,232.31A131.84,131.84,0,0,0,374,203,148.79,148.79,0,0,1,348.53,232.31Z" transform="translate(-82.8 -53.8)"/><path class="cls-4" d="M314.2,255.69l-.38.93a190.81,190.81,0,0,0,34.71-24.31A196.39,196.39,0,0,1,314.2,255.69Z" transform="translate(-82.8 -53.8)"/><path class="cls-4" d="M315,253.68l-.05.12,1.33-.76Z" transform="translate(-82.8 -53.8)"/><path class="cls-4" d="M391.16,164.05h0l-.05.11c4.08,1.11,8.16,2.06,11.93,3C400.76,166.58,396.66,165.52,391.16,164.05Z" transform="translate(-82.8 -53.8)"/><path class="cls-4" d="M403,167.16l2.08.52Z" transform="translate(-82.8 -53.8)"/><path class="cls-4" d="M359,207c-9.22,20.17-24.43,35.35-42.68,46,23-11.93,42.67-27.55,45.68-54,1.3-10.43-8.43-13.21-17-17.2l-1.58,3.79C353.34,191.38,364.65,195.7,359,207Z" transform="translate(-82.8 -53.8)"/><path class="cls-4" d="M361.58,141.9l-.84,2c2.4,6,7,10.46,12.66,13.75l-.29-.64C367.43,153.51,363.1,148.74,361.58,141.9Z" transform="translate(-82.8 -53.8)"/><path class="cls-4" d="M373.11,157l.29.64a56.87,56.87,0,0,0,15.82,6A65.76,65.76,0,0,1,373.11,157Z" transform="translate(-82.8 -53.8)"/><path class="cls-4" d="M389.22,163.63l1.89.53.05-.11C390.51,163.92,389.86,163.77,389.22,163.63Z" transform="translate(-82.8 -53.8)"/><path class="cls-4" d="M272.74,355.29l-.6,1.46a80.9,80.9,0,0,1,20.71,13.62A61.62,61.62,0,0,0,272.74,355.29Z" transform="translate(-82.8 -53.8)"/><path class="cls-4" d="M292.85,370.37l.63.71c.9.88,1.77,1.68,2.62,2.45Q294.49,371.88,292.85,370.37Z" transform="translate(-82.8 -53.8)"/><path class="cls-4" d="M359.93,379.44c19-8,33-30,25-50-1.5-4.5-.43-9.75-.94-13.65,0-4.79-5-6.79-10-5.79-12,4-25,6-33.07,17.44,2.5,6,7.75,8.75,13.62,10.87s12.38,3.63,17.38,7.13c6,5,2,11-1,16-7,11-18,16-30,19,25-3,46-28,38-53a28.77,28.77,0,0,1,5,20c-4,24-27,35-48,36a100.72,100.72,0,0,1-29.74-2.21,82.45,82.45,0,0,1-10.09-7.7c.69.72,1.38,1.45,2,2.21,8.84,7.51,15.56,8.88,22.24,9.38A89.27,89.27,0,0,0,359.93,379.44Z" transform="translate(-82.8 -53.8)"/><path class="cls-4" d="M360.62,144.19A48.65,48.65,0,0,0,372,154.49l-8.16-18Z" transform="translate(-82.8 -53.8)"/><path class="cls-4" d="M395,154.56l-3.57,8.75c7.89,2.47,16.19,4.19,24.28,6l-2.91-7.06A80.2,80.2,0,0,1,395,154.56Z" transform="translate(-82.8 -53.8)"/><path class="cls-4" d="M346.93,378.44a46.65,46.65,0,0,0,32-26c-10.83,20-33.47,29.58-55.76,27.59a64.88,64.88,0,0,1-13.24-2.59c-12.24-8-24.49-15.56-36.84-23l-.19.46a214.34,214.34,0,0,1,34.15,23.32,100.48,100.48,0,0,0,19.71,2.15A96.93,96.93,0,0,0,346.93,378.44Z" transform="translate(-82.8 -53.8)"/><path class="cls-4" d="M410,181c0,1,1,2,2,3-9,7-23-1-27,7-19,29.53-42.92,49.66-70.75,64.58l-1.16,2.8C342,241.46,366.75,219.25,391,195c6-7,18-1,27-6l-4-4a40.27,40.27,0,0,1,8.22,0l-1.29-3.11A38.75,38.75,0,0,0,410,181Z" transform="translate(-82.8 -53.8)"/><path class="cls-4" d="M418.6,377.75l.33-.31-.41.08C418.54,377.59,418.57,377.67,418.6,377.75Z" transform="translate(-82.8 -53.8)"/><path class="cls-4" d="M466.93,386.44c-3.17,3.5-5.95,7.34-11.33,13.51a73.25,73.25,0,0,0-15.92,27.45h1.09a72.77,72.77,0,0,1,13.93-24.9c6.26-7.61,10.7-12.89,14-17a64.29,64.29,0,0,1,11.26-11.08c1.51-1.24,3.06-2.4,4.64-3.5A82.19,82.19,0,0,0,466.93,386.44Z" transform="translate(-82.8 -53.8)"/><path class="cls-4" d="M497.3,364.11l-.1-.25a74.31,74.31,0,0,0-12.63,7.08A85.18,85.18,0,0,1,497.3,364.11Z" transform="translate(-82.8 -53.8)"/><path class="cls-4" d="M496.79,362.81a79.33,79.33,0,0,0-28.86,20.63c-3.5,3.83-6.4,7.93-11.26,13.86-8.73,8.13-12.73,19.11-17.72,30.1h4.89a82,82,0,0,1,16.92-28.28c6.36-6.94,11.1-11.89,14.12-15.62a63.26,63.26,0,0,1,10.05-10.05,80.3,80.3,0,0,1,13.12-7.4Z" transform="translate(-82.8 -53.8)"/><path class="cls-3" d="M497.7,365.14c-.93.42-1.86.84-2.77,1.3a70.48,70.48,0,0,0-14,9.26A64.45,64.45,0,0,0,469.62,388c-11.85,10.89-21.59,24.39-26.77,39.37h1a76.76,76.76,0,0,1,23.35-35.64c3.39-3.47,5.77-6.16,7.69-8.42A63.8,63.8,0,0,1,498,365.93Z" transform="translate(-82.8 -53.8)"/><path class="cls-4" d="M496.84,362.93A102.73,102.73,0,0,0,458.27,389c-4.61,5-8.82,10.51-15,18.86-2.52,6.15-7,11.1-10.05,16.74.39.93.79,1.85,1.2,2.77H435c4.51-9.53,9.5-19,16.22-26.62,5.69-6.8,9.59-11.48,13.82-15.67a92,92,0,0,1,32.34-20.72Z" transform="translate(-82.8 -53.8)"/><path class="cls-4" d="M435,427.41h-.63c.1.23.2.47.31.7C434.82,427.87,434.92,427.64,435,427.41Z" transform="translate(-82.8 -53.8)"/><path class="cls-4" d="M444.47,427.39c.22-.79.46-1.57.71-2.35-.28.78-.54,1.56-.79,2.35Z" transform="translate(-82.8 -53.8)"/><path class="cls-4" d="M454.16,406.82a72.21,72.21,0,0,0-9,18.22A88.67,88.67,0,0,1,454.16,406.82Z" transform="translate(-82.8 -53.8)"/><path class="cls-4" d="M497.82,365.46a59.67,59.67,0,0,0-17.89,12c-3.83,3.5-7.06,7.56-12,13.06a79.55,79.55,0,0,0-13.8,16.32,72.86,72.86,0,0,1,16.29-17.19,71.16,71.16,0,0,1,13.1-14.75A59.55,59.55,0,0,1,498,366Z" transform="translate(-82.8 -53.8)"/></g></g></g></svg>